<svg xmlns="http://www.w3.org/2000/svg" viewBox="0 0 445 115">
  <style type="text/css">path{fill:#545454;stroke:#545454;stroke-width:1;}</style>
  <title>Ericsign</title>
  <g>
    <path d="M215.69,96.63c-2,.94-4,2.06-6.19,2.82-3.92,1.38-7.87,2.69-11.87,3.77A109.54,109.54,0,0,1,177.52,107c-5.48.43-10.92,1.35-16.38,2a83,83,0,0,1-22,0,25.15,25.15,0,0,1-4.6-1.14,7.64,7.64,0,0,1-5.07-7.77,24,24,0,0,1,2-7.57c1.37-3.62,2.89-7.19,4.41-10.75,1.41-3.29,3-6.5,4.31-9.84a55.09,55.09,0,0,0,3.93-16.16,9.4,9.4,0,0,0-.08-1.91c-.24-1.73-.93-2.49-2.64-2.46a12.53,12.53,0,0,0-4.19.64A81.81,81.81,0,0,0,120.92,61c-6.13,4.16-12.24,8.35-18.54,12.24a29.39,29.39,0,0,1-13,4.41,24.16,24.16,0,0,1-8.48-.31c-4.89-1.28-8.41-4-9.72-8.93A56.36,56.36,0,0,1,69.54,58a86.38,86.38,0,0,1-.16-11.93c.34-5.39.88-10.79,1.7-16.13C71.76,25.47,73,21.06,74,16.63a59.65,59.65,0,0,0,1.56-7.79c-1,1.15-2.06,2.27-3,3.48-2.52,3.29-5,6.61-7.47,10-1.65,2.24-3.19,4.56-4.8,6.82C55,36.56,49.59,44,44.29,51.49,41.8,55,39.39,58.59,37,62.16Q32.49,68.76,28,75.39C22.68,83.32,17.29,91.24,12,99.2c-2.43,3.65-4.73,7.38-7.12,11.11l1.86,1.48A2.31,2.31,0,0,1,3.83,113,8,8,0,0,1,.9,111.63c-.24-.16-.11-1.25.18-1.71,2.82-4.53,5.7-9,8.59-13.53,2.8-4.35,5.59-8.71,8.47-13C20,80.6,22.05,78,23.91,75.18c2.17-3.24,4.21-6.57,6.34-9.85A39.44,39.44,0,0,1,34,59.8c2.11-2.3,3.37-5.13,5.27-7.55s3.38-5,5.13-7.46c2.25-3.19,4.61-6.3,6.87-9.49s4.32-6.5,6.72-9.57,4.29-6.29,6.62-9.3c3.12-4,6.36-7.93,9.54-11.9.25-.31.46-.65.69-1,1.23-1.66,2-1.95,3.54-1.4,1.94.68,2.54,1.44,2.29,3.58a30.92,30.92,0,0,1-1.14,5.37,165.63,165.63,0,0,0-5.06,21.41,94.56,94.56,0,0,0-1.14,17.14c.07,3.43.1,6.86.2,10.29a25,25,0,0,0,1.72,8.16,7.07,7.07,0,0,0,3.12,3.81A15.31,15.31,0,0,0,86.3,74c4.93,0,9.17-1.91,13.48-3.77a24,24,0,0,0,3.23-2c.26-.18.5-.41.77-.56,5.62-3,10.3-7.48,15.79-10.69,3.77-2.2,7.29-4.83,11.44-6.44,2.35-.91,4.54-2.26,7-2.88a9.39,9.39,0,0,1,7.72,1.11c1.75,1.12,2.05,3,2.41,4.7a13.27,13.27,0,0,1-.06,4.53,80.49,80.49,0,0,1-6.62,21.13c-2.71,6-5.1,12.21-7.63,18.33a3.9,3.9,0,0,0-.19.69c-.86,3.82,0,5.47,3.75,6.38a46,46,0,0,0,8,1c3.26.2,6.54.29,9.8.19,2.29-.07,4.56-.55,6.84-.82,6.24-.74,12.47-1.45,18.7-2.2a59.53,59.53,0,0,0,8.7-1.2c7-1.93,13.88-4.19,20.82-6.3a19.11,19.11,0,0,1,2.77-.72C214.85,94.12,215,94.28,215.69,96.63Z"/>
    <path d="M442.72,68.2l1,1.08a1.35,1.35,0,0,1-.22,2.25,33.68,33.68,0,0,1-5.34,3.12c-5.18,2.2-10.75,2.95-16.26,3.79-6.06.92-12.17,1.55-18.22,2.5-7.63,1.2-15.23,2.55-22.83,3.93-4,.72-8,1.72-11.94,2.46a37.82,37.82,0,0,1-12.15.41,8.32,8.32,0,0,1-7.1-7.35c-.41-3.4.42-6.66,1-10s1.05-6.45,1.41-9.69c.23-2.09,0-2.62-1.07-4.61a7.1,7.1,0,0,0-5.62,1.14c-6.18,3.73-11.72,8.31-17.3,12.83-4.27,3.46-8.37,7.13-12.62,10.62-4.94,4-10,7.9-15.21,11.59a61.92,61.92,0,0,1-13.36,7.37c-5.25,2-10.78,2.84-16.29.52a8.35,8.35,0,0,1-5.21-6c-1.32-5.33-.34-10.47,1.14-15.54a52.33,52.33,0,0,1,3.23-8.48c1.71-3.46,3-7.14,5.5-10.23.93-1.17,1.52-2.6,2.37-3.84A79.32,79.32,0,0,1,297,36.5a36.55,36.55,0,0,1,4.89-3c2.43-1.21,3.19-.8,4.26,2a4.54,4.54,0,0,1-.92.63c-4.75,1.74-8.31,5.27-12.19,8.29a41.42,41.42,0,0,0-6.32,5.79c-2.8,3.36-5.32,7-7.79,10.56a69.56,69.56,0,0,0-9.3,20.65,34.83,34.83,0,0,0-.86,10.9,4.33,4.33,0,0,0,2.86,4.07,15.49,15.49,0,0,0,7.44,1.31c6.77-.7,12.48-3.93,17.8-7.73,6.47-4.62,12.52-9.82,18.91-14.57,2.91-2.16,5.53-4.64,8.32-6.92,4.86-4,9.68-7.95,14.77-11.62,1.86-1.35,3.91-2.43,5.87-3.65a11.65,11.65,0,0,1,5-1.32c3.12-.37,5.46,1.82,6,5.13.78,4.42-.09,8.74-.85,13.06-.46,2.59-.93,5.18-1.3,7.78a6.15,6.15,0,0,0,.14,2.6,3.87,3.87,0,0,0,3.27,3.1,25.22,25.22,0,0,0,8,.1,2.1,2.1,0,0,1,.24-.06c4.78.17,9.19-1.79,13.83-2.46s9-2,13.51-2.82c4.79-.83,9.64-1.36,14.46-2,5.53-.76,11.08-1.41,16.59-2.3a84.65,84.65,0,0,0,10.7-2.34A79,79,0,0,0,442.72,68.2Z"/>
  </g>
</svg>
